<svg width="93" height="93" viewBox="0 0 93 93" fill="none" xmlns="http://www.w3.org/2000/svg">
<circle cx="46.4031" cy="46.4031" r="46.4031" fill="#181C66"/>
<path d="M16.6413 20.5865C21.7274 20.4818 27.2021 20.5984 32.3211 20.6024L62.2288 20.5963L72.6301 20.5947C74.5827 20.5936 76.7609 20.6352 78.698 20.5541C78.5086 21.7877 78.4137 23.462 78.3027 24.7351L77.7446 30.6298C77.6544 31.6057 77.602 32.6635 77.4505 33.6177C75.7698 33.3999 73.9151 33.4239 72.2228 33.3276L60.4513 32.7241C58.6601 32.6444 56.5515 32.6659 54.8081 32.4148C52.9097 35.464 50.6862 38.6062 48.6942 41.6309C47.6316 43.2445 45.4505 46.661 44.261 48.0866C45.3535 47.9941 46.8692 48.0584 47.998 48.0458C50.9147 48.0134 53.9268 48.1453 56.8349 48.0284C55.6657 49.2213 54.5548 50.526 53.426 51.7659L44.8415 61.2813C43.4327 62.9438 41.8049 64.6772 40.3369 66.3082L32.8978 74.5961L28.2227 79.7227C27.4605 80.5698 26.4848 81.7939 25.6897 82.5213C25.8639 81.9195 26.6154 80.4045 26.9118 79.7491L29.6044 73.7952L33.8242 64.4669C34.4197 63.1368 35.6013 60.2812 36.2768 59.1883C35.0178 59.2388 33.4297 59.1887 32.1385 59.1839C29.5341 59.1672 26.9295 59.1699 24.3252 59.1922C25.1157 57.7966 26.6592 53.5734 27.325 51.9195L32.3556 39.2968C33.3569 36.7725 34.4115 33.9642 35.5235 31.5111C34.9391 31.5381 33.5039 31.406 32.8156 31.3735C30.7125 31.2949 28.6104 31.1911 26.5097 31.0621L11.5371 30.3463C12.0623 29.2577 16.0454 21.0797 16.6413 20.5865Z" fill="#FEFEFE"/>
<path d="M16.6413 20.5865C21.7274 20.4818 27.2021 20.5984 32.3211 20.6024L62.2288 20.5963L72.6301 20.5947C74.5827 20.5936 76.7609 20.6352 78.698 20.5541C78.5086 21.7877 78.4137 23.462 78.3027 24.7351L77.7446 30.6298C77.6544 31.6057 77.602 32.6635 77.4505 33.6177C75.7698 33.3999 73.9151 33.4239 72.2228 33.3276L60.4513 32.7241C58.6601 32.6444 56.5515 32.6659 54.8081 32.4148C52.9097 35.464 50.6862 38.6062 48.6942 41.6309C47.6316 43.2445 45.4505 46.661 44.261 48.0866C45.3535 47.9941 46.8692 48.0584 47.998 48.0458C50.9147 48.0134 53.9268 48.1453 56.8349 48.0284C55.6657 49.2213 54.5548 50.526 53.426 51.7659L44.8415 61.2813C43.4327 62.9438 41.8049 64.6772 40.3369 66.3082L32.8978 74.5961L28.2227 79.7227C27.4605 80.5698 26.4848 81.7939 25.6897 82.5213C25.8639 81.9195 26.6154 80.4045 26.9118 79.7491L29.6044 73.7952L33.8242 64.4669C34.4197 63.1368 35.6013 60.2812 36.2768 59.1883C35.0178 59.2388 33.4297 59.1887 32.1385 59.1839C29.5341 59.1672 26.9295 59.1699 24.3252 59.1922C25.1157 57.7966 26.6592 53.5734 27.325 51.9195L32.3556 39.2968C33.3569 36.7725 34.4115 33.9642 35.5235 31.5111C34.9391 31.5381 33.5039 31.406 32.8156 31.3735C30.7125 31.2949 28.6104 31.1911 26.5097 31.0621L11.5371 30.3463C12.0623 29.2577 16.0454 21.0797 16.6413 20.5865Z" fill="#FEFEFE"/>
</svg>
