<svg width="365" height="93" viewBox="0 0 365 93" fill="none" xmlns="http://www.w3.org/2000/svg">
<circle cx="46.4031" cy="46.4031" r="46.4031" fill="#181C66"/>
<path d="M16.6413 20.5865C21.7274 20.4818 27.2021 20.5984 32.3211 20.6024L62.2288 20.5963L72.6301 20.5947C74.5827 20.5936 76.7609 20.6352 78.698 20.5541C78.5086 21.7877 78.4137 23.462 78.3027 24.7351L77.7446 30.6298C77.6544 31.6057 77.602 32.6635 77.4505 33.6177C75.7698 33.3999 73.9151 33.4239 72.2228 33.3276L60.4513 32.7241C58.6601 32.6444 56.5515 32.6659 54.8081 32.4148C52.9097 35.464 50.6862 38.6062 48.6942 41.6309C47.6316 43.2445 45.4505 46.661 44.261 48.0866C45.3535 47.9941 46.8692 48.0584 47.998 48.0458C50.9147 48.0134 53.9268 48.1453 56.8349 48.0284C55.6657 49.2213 54.5548 50.526 53.426 51.7659L44.8415 61.2813C43.4327 62.9438 41.8049 64.6772 40.3369 66.3082L32.8978 74.5961L28.2227 79.7227C27.4605 80.5698 26.4848 81.7939 25.6897 82.5213C25.8639 81.9195 26.6154 80.4045 26.9118 79.7491L29.6044 73.7952L33.8242 64.4669C34.4197 63.1368 35.6013 60.2812 36.2768 59.1883C35.0178 59.2388 33.4297 59.1887 32.1385 59.1839C29.5341 59.1672 26.9295 59.1699 24.3252 59.1922C25.1157 57.7966 26.6592 53.5734 27.325 51.9195L32.3556 39.2968C33.3569 36.7725 34.4115 33.9642 35.5235 31.5111C34.9391 31.5381 33.5039 31.406 32.8156 31.3735C30.7125 31.2949 28.6104 31.1911 26.5097 31.0621L11.5371 30.3463C12.0623 29.2577 16.0454 21.0797 16.6413 20.5865Z" fill="#FEFEFE"/>
<path d="M16.6413 20.5865C21.7274 20.4818 27.2021 20.5984 32.3211 20.6024L62.2288 20.5963L72.6301 20.5947C74.5827 20.5936 76.7609 20.6352 78.698 20.5541C78.5086 21.7877 78.4137 23.462 78.3027 24.7351L77.7446 30.6298C77.6544 31.6057 77.602 32.6635 77.4505 33.6177C75.7698 33.3999 73.9151 33.4239 72.2228 33.3276L60.4513 32.7241C58.6601 32.6444 56.5515 32.6659 54.8081 32.4148C52.9097 35.464 50.6862 38.6062 48.6942 41.6309C47.6316 43.2445 45.4505 46.661 44.261 48.0866C45.3535 47.9941 46.8692 48.0584 47.998 48.0458C50.9147 48.0134 53.9268 48.1453 56.8349 48.0284C55.6657 49.2213 54.5548 50.526 53.426 51.7659L44.8415 61.2813C43.4327 62.9438 41.8049 64.6772 40.3369 66.3082L32.8978 74.5961L28.2227 79.7227C27.4605 80.5698 26.4848 81.7939 25.6897 82.5213C25.8639 81.9195 26.6154 80.4045 26.9118 79.7491L29.6044 73.7952L33.8242 64.4669C34.4197 63.1368 35.6013 60.2812 36.2768 59.1883C35.0178 59.2388 33.4297 59.1887 32.1385 59.1839C29.5341 59.1672 26.9295 59.1699 24.3252 59.1922C25.1157 57.7966 26.6592 53.5734 27.325 51.9195L32.3556 39.2968C33.3569 36.7725 34.4115 33.9642 35.5235 31.5111C34.9391 31.5381 33.5039 31.406 32.8156 31.3735C30.7125 31.2949 28.6104 31.1911 26.5097 31.0621L11.5371 30.3463C12.0623 29.2577 16.0454 21.0797 16.6413 20.5865Z" fill="#FEFEFE"/>
<path d="M106.458 28.4033H137.786V35.4814H125.603V67.4033H118.641V35.4814H106.458V28.4033Z" fill="#181C66"/>
<path d="M169.113 49.5667V35.5521H151.709V49.5667H169.113ZM151.709 56.6447V67.4033H144.747V35.5521C144.91 30.9986 147.219 28.6393 151.674 28.4741H169.113C173.592 28.5921 175.912 30.9632 176.075 35.5875V67.4033H169.113V56.6447H151.709Z" fill="#181C66"/>
<path d="M183.037 35.3044C183.245 30.8452 185.578 28.5449 190.033 28.4033H207.402C211.928 28.5449 214.248 30.9042 214.364 35.4814V40.6837H207.402V35.446H189.998V60.3253H207.402V53.2472H214.364V60.3607C214.248 64.8198 211.916 67.1674 207.368 67.4033H189.998C185.566 67.2618 183.245 64.9024 183.037 60.3253V35.3044Z" fill="#181C66"/>
<path d="M221.465 28.4033H228.427V44.1166L242.211 28.4033H250.843L234.936 47.691L252.41 67.4033H242.629L230.306 53.7781L228.427 55.4768V67.4033H221.465V28.4033Z" fill="#181C66"/>
<path d="M259.754 28.4033H266.716V60.3253H289.411V67.4033H259.754V28.4033Z" fill="#181C66"/>
<path d="M296.373 28.4033H325.89V35.4814H303.334V44.612H318.929V51.5485H303.334V60.3253H325.89V67.4033H296.373V28.4033Z" fill="#181C66"/>
<path d="M360.977 28.4033V35.4814H340.092V44.4705H357.496C361.929 44.6828 364.249 47.0186 364.458 51.4777V60.2191C364.249 64.7491 361.905 67.1438 357.427 67.4033H333.13V60.3253H357.496V51.5485H340.092C335.637 51.2182 333.316 48.8471 333.13 44.4351V35.446C333.316 30.9632 335.637 28.6157 340.092 28.4033H360.977Z" fill="#181C66"/>
</svg>
